<svg width="166" height="166" viewBox="0 0 166 166" fill="none" xmlns="http://www.w3.org/2000/svg">
<path d="M142.757 58.6545H85.6062C84.0779 58.6545 82.8395 59.8933 82.8395 61.4212V124.453C82.8395 125.98 84.0779 127.219 85.6062 127.219H142.757C144.285 127.219 145.524 125.98 145.524 124.453V61.4212C145.524 59.8933 144.285 58.6545 142.757 58.6545ZM125.332 111.772C125.332 110.244 124.093 109.005 122.566 109.005H105.798C104.27 109.005 103.031 110.244 103.031 111.772C103.031 113.3 104.27 114.539 105.798 114.539H111.416V121.686H98.0057C96.8588 115.043 94.696 109.949 91.8994 106.976C99.3233 100.445 103.535 82.5054 104.141 64.1879H124.223C124.828 82.5054 129.041 100.445 136.465 106.976C133.668 109.949 131.505 115.043 130.359 121.686H116.949V114.539H122.566C124.093 114.539 125.332 113.3 125.332 111.772ZM139.99 102.696C138.225 101.099 136.221 97.9593 134.38 92.6654C131.742 85.0817 130.124 75.0546 129.76 64.1879H139.99V102.696ZM98.6036 64.1879C98.2388 75.0542 96.6212 85.0814 93.9837 92.6654C92.1425 97.9593 90.1387 101.099 88.3732 102.696V64.1879H98.6036ZM88.3729 111.323C89.8477 113.191 91.3967 116.584 92.382 121.686H88.3729V111.323ZM135.982 121.686C136.967 116.584 138.516 113.191 139.99 111.323V121.686H135.982Z" fill="#474036"/>
<path d="M61.0386 83.8186H36.1397C34.6114 83.8186 33.373 85.0573 33.373 86.5853V124.452C33.373 125.98 34.6114 127.219 36.1397 127.219H61.0386C62.5669 127.219 63.8052 125.98 63.8052 124.452V86.5853C63.8052 85.0573 62.5665 83.8186 61.0386 83.8186ZM58.2719 121.686H38.9063V89.3519H58.2719V121.686Z" fill="#474036"/>
<path d="M163.233 139.99H155.483V54.7815H161.302C162.176 54.7815 162.998 54.3687 163.52 53.6678C164.043 52.9673 164.203 52.061 163.953 51.2236L155.368 22.4517C155.018 21.2798 153.94 20.4763 152.716 20.4763H13.2837C12.0605 20.4763 10.9826 21.2798 10.6325 22.4517L2.0466 51.2236C1.79649 52.061 1.95696 52.9673 2.4793 53.6678C3.00128 54.3684 3.8239 54.7815 4.6978 54.7815H10.517V139.99H2.76667C1.23836 139.99 0 141.229 0 142.757C0 144.285 1.23836 145.524 2.76667 145.524H163.233C164.762 145.524 166 144.285 166 142.757C166 141.229 164.762 139.99 163.233 139.99ZM157.589 49.2482H149.238L143.564 26.0097H150.655L157.589 49.2482ZM22.458 49.2482L28.1315 26.0097H35.2934L30.8804 49.2482H22.458ZM40.9256 26.0097H48.1433L44.9915 49.2482H36.5126L40.9256 26.0097ZM53.7272 26.0097H60.9855L59.0942 49.2482H50.5754L53.7272 26.0097ZM66.5372 26.0097H73.8195L73.189 49.2482H64.6459L66.5372 26.0097ZM79.3546 26.0097H86.645L87.2754 49.2482H78.7238L79.3546 26.0097ZM92.811 49.2482L92.1805 26.0097H99.4628L101.354 49.2482H92.811ZM106.906 49.2482L105.015 26.0097H112.272L115.425 49.2482H106.906ZM121.008 49.2482L117.856 26.0097H125.074L129.487 49.2482H121.008ZM135.12 49.2482L130.707 26.0097H137.869L143.542 49.2482H135.12ZM15.3454 26.0097H22.4358L16.7619 49.2482H8.4103L15.3454 26.0097ZM29.3296 139.99V79.6804H67.849V139.99H29.3296ZM72.6578 74.1471H24.5204V64.1878H72.6578V74.1471ZM73.3823 139.99V79.6804H75.4245C76.9528 79.6804 78.1912 78.4417 78.1912 76.9137V61.4211C78.1912 59.8932 76.9528 58.6545 75.4245 58.6545H21.7537C20.2254 58.6545 18.9871 59.8932 18.9871 61.4211V76.9137C18.9871 78.4417 20.2254 79.6804 21.7537 79.6804H23.7963V139.99H16.0504V54.7815H149.95V139.99H73.3823Z" fill="#474036"/>
</svg>
