<svg width="166" height="166" viewBox="0 0 166 166" fill="none" xmlns="http://www.w3.org/2000/svg">
<g clip-path="url(#clip0_205_259)">
<rect width="166" height="166" fill="white"/>
<path d="M165.986 145.357C165.849 143.894 164.722 142.719 163.267 142.518L137.6 138.978L123.779 97.9345C129.407 95.2995 133.953 90.8785 136.756 85.2284C140.034 78.6224 140.544 71.135 138.19 64.1461C138.142 64.0045 138.085 63.8663 138.017 63.7324L123.539 34.9837C122.83 33.577 121.195 32.9042 119.701 33.4077L82.9997 45.7666L46.2983 33.408C44.8059 32.9055 43.1692 33.577 42.4608 34.9841L38.3747 43.0976C37.5885 44.6594 38.2165 46.5625 39.7782 47.3487C41.339 48.1347 43.2432 47.507 44.0291 45.9452L46.8802 40.2844L79.3869 51.2303L74.0691 79.9521C71.0221 88.7095 62.7753 94.2364 53.9582 94.2358C51.7127 94.2355 49.4279 93.8765 47.185 93.1214C41.7984 91.3078 37.441 87.5047 34.915 82.4142C32.3887 77.323 31.9964 71.5529 33.81 66.1667C34.368 64.5096 33.4774 62.7141 31.8203 62.1564C30.1633 61.5994 28.3677 62.4894 27.8101 64.1461C25.4566 71.1353 25.9656 78.6221 29.2434 85.2284C32.047 90.8785 36.5922 95.2992 42.2209 97.9345L28.4002 138.978L2.73315 142.517C1.27774 142.718 0.151735 143.894 0.0139424 145.357C-0.123526 146.82 0.762885 148.185 2.15507 148.654L49.4503 164.579C52.5417 165.621 55.0012 161.648 52.7016 159.344L34.4027 141.001L48.2225 99.9595C50.1357 100.371 52.0703 100.579 54 100.579C58.1993 100.579 62.3746 99.609 66.2464 97.6877C72.8523 94.4099 77.7866 88.7555 80.1398 81.7667C80.1874 81.625 80.2254 81.4798 80.2529 81.3329L83.0003 66.4954L85.7471 81.3329C85.774 81.4801 85.8123 81.625 85.8602 81.7667C89.7382 93.2836 100.517 100.567 112.048 100.567C113.946 100.567 115.865 100.365 117.777 99.9566L131.597 141L113.298 159.343C110.999 161.647 113.457 165.621 116.549 164.578L163.845 148.653C165.237 148.185 166.124 146.82 165.986 145.357ZM38.7096 154.282L16.9365 146.951L29.6471 145.198L38.7096 154.282ZM91.9303 79.9524L86.6124 51.2306L119.119 40.2847L132.258 66.3735C133.993 71.7007 133.579 77.3885 131.085 82.4148C128.559 87.506 124.201 91.3091 118.815 93.1227C107.764 96.8418 95.7531 90.9398 91.9303 79.9524ZM127.29 154.282L136.353 145.198L149.064 146.951L127.29 154.282Z" fill="#474036"/>
<path d="M125.532 67.1026C125.485 66.961 125.427 66.8225 125.359 66.6889L118.874 53.8107C118.087 52.2493 116.185 51.6206 114.623 52.4071C113.061 53.1934 112.433 55.0965 113.219 56.6583L119.595 69.319C120.185 71.2332 120.022 73.266 119.128 75.067C118.204 76.9297 116.61 78.3206 114.639 78.9839C112.983 79.5419 112.092 81.3374 112.649 82.9942C113.095 84.316 114.328 85.1505 115.649 85.1505C115.984 85.1505 116.325 85.097 116.66 84.9839C120.233 83.781 123.124 81.2583 124.799 77.8809C126.475 74.5039 126.736 70.6762 125.532 67.1026Z" fill="#474036"/>
<path d="M51.3616 78.985C49.391 78.3213 47.7971 76.9304 46.8728 75.0681C45.9792 73.2671 45.8155 71.2343 46.4056 69.3201L52.7816 56.6587C53.5679 55.097 52.9399 53.1938 51.3781 52.4076C49.8176 51.6207 47.9135 52.2494 47.1273 53.8111L40.6416 66.6894C40.5742 66.8226 40.5162 66.9611 40.4692 67.1031C39.2653 70.6763 39.5263 74.5043 41.2019 77.8817C42.8774 81.2587 45.7685 83.7815 49.3414 84.985C49.6766 85.0981 50.017 85.1516 50.3523 85.1516C51.6738 85.1513 52.9071 84.3168 53.3519 82.9952C53.9093 81.3385 53.0183 79.543 51.3616 78.985Z" fill="#474036"/>
<path d="M88.1966 18.656C88.1324 13.7172 87.6723 8.7447 86.829 3.87592C86.5311 2.15336 84.8928 0.999141 83.1699 1.2971C81.447 1.59538 80.2925 3.23365 80.5911 4.95654C81.377 9.49656 81.8063 14.1335 81.8662 18.7387C81.9324 23.8331 81.5492 28.9691 80.7263 34.0038C80.4439 35.7293 81.6143 37.3569 83.3395 37.6386C83.512 37.6668 83.6838 37.6805 83.854 37.6805C85.3772 37.6805 86.7208 36.5775 86.9746 35.0251C87.8575 29.6266 88.2686 24.1191 88.1966 18.656Z" fill="#474036"/>
<path d="M72.8591 23.721C69.7071 18.802 65.1833 16.6933 62.7675 15.874C61.1137 15.3134 59.3149 16.1998 58.7531 17.8556C58.1919 19.5107 59.0789 21.3082 60.7347 21.8697C62.3662 22.4232 65.418 23.8426 67.529 27.1366C69.1193 29.6185 69.5025 32.1163 69.5437 33.775C69.5871 35.496 70.9952 36.8616 72.7068 36.8616C72.7333 36.8616 72.7609 36.8612 72.7875 36.8606C74.5353 36.8168 75.9168 35.3646 75.8734 33.6168C75.8115 31.1524 75.2382 27.4343 72.8591 23.721Z" fill="#474036"/>
<path d="M109.819 19.644C107.794 19.5934 102.596 19.8946 98.0411 23.8336C94.0941 27.2459 92.7992 31.4757 92.3783 33.6933C92.0528 35.4114 93.1811 37.0678 94.8985 37.3943C95.0982 37.4319 95.2966 37.4504 95.4924 37.4504C96.9829 37.4504 98.3105 36.3928 98.5984 34.8745C98.8659 33.4661 99.6868 30.7806 102.182 28.6229C105.064 26.1313 108.374 25.9377 109.655 25.9734C109.682 25.9737 109.71 25.9744 109.738 25.9744C111.448 25.9744 112.857 24.6107 112.901 22.8907C112.946 21.1425 111.566 19.6894 109.819 19.644Z" fill="#474036"/>
<path d="M98.0197 4.20581C96.1568 4.20581 94.6411 5.72153 94.6411 7.58448C94.6411 9.44743 96.1568 10.9632 98.0197 10.9632C99.8827 10.9632 101.398 9.44743 101.398 7.58448C101.398 5.72153 99.883 4.20581 98.0197 4.20581Z" fill="#474036"/>
<path d="M71.8621 6.25146C69.9992 6.25146 68.4835 7.76718 68.4835 9.63013C68.4835 11.4931 69.9992 13.0088 71.8621 13.0088C73.7251 13.0088 75.2408 11.4931 75.2408 9.63013C75.2408 7.76718 73.7251 6.25146 71.8621 6.25146Z" fill="#474036"/>
</g>
<defs>
<clipPath id="clip0_205_259">
<rect width="166" height="166" fill="white"/>
</clipPath>
</defs>
</svg>
