<svg width="152" height="152" viewBox="0 0 152 152" fill="none" xmlns="http://www.w3.org/2000/svg">
<g clip-path="url(#clip0_205_287)">
<path d="M144.422 33.5313H100.575C102.722 33.5313 104.822 30.7095 106.78 28.9966C113.453 23.1642 117.44 16.1663 117.44 10.3292C117.44 7.3328 116.364 4.79883 114.335 3.01986C108.541 -2.05751 95.3846 1.08518 85.631 9.62139C81.9739 12.8207 79.1616 16.3551 77.3307 19.8658C75.4998 16.3551 72.6874 12.816 69.0304 9.61668C59.272 1.07574 46.1162 -2.07167 40.3262 3.00571C38.2972 4.77996 37.2213 7.30449 37.2213 10.3056C37.2213 16.138 41.2087 23.1595 47.881 28.9966C49.8393 30.7095 51.9438 33.5313 54.0908 33.5313H7.57812C3.67572 33.5313 0.5 36.6126 0.5 40.515V59.39C0.5 63.2972 3.67572 66.5625 7.57812 66.5625H9.9375V144.328C9.9375 148.235 13.1132 151.5 17.0156 151.5H134.989C138.891 151.5 142.062 148.235 142.062 144.328V66.5625H144.422C148.324 66.5625 151.5 63.2972 151.5 59.39V40.515C151.5 36.6126 148.324 33.5313 144.422 33.5313ZM88.7359 13.1652C94.4031 8.21049 101.198 5.12443 106.469 5.12443C108.517 5.12443 110.159 5.61989 111.23 6.55421C112.221 7.42718 112.721 8.68236 112.721 10.3056C112.721 14.6705 109.168 20.5972 103.675 25.4009C98.013 30.3556 91.2132 33.4369 85.9471 33.4369C83.8945 33.4369 82.2523 32.9415 81.1812 32.0071C80.1902 31.1389 79.6901 29.879 79.6901 28.2557C79.6901 23.9003 83.2433 17.9736 88.7359 13.1652ZM71.2812 38.25H80.7188V146.781H71.2812V38.25ZM50.9859 25.4009C45.4933 20.5878 41.9401 14.6657 41.9401 10.3056C41.9401 8.68236 42.4402 7.42246 43.4312 6.55421C44.5023 5.62461 46.1445 5.12443 48.1971 5.12443C53.4632 5.12443 60.263 8.20577 65.9255 13.1605C71.4181 17.9689 74.9713 23.8909 74.9713 28.2557C74.9713 29.879 74.4711 31.1342 73.4802 32.0071C72.409 32.9367 70.7669 33.4369 68.719 33.4369C63.4481 33.4369 56.6531 30.3556 50.9859 25.4009ZM14.6562 144.328V66.5625H54.7656C56.068 66.5625 57.125 65.5055 57.125 64.2032C57.125 62.9008 56.068 61.8438 54.7656 61.8438H7.57812C6.28047 61.8438 5.21875 60.6924 5.21875 59.39V40.515C5.21875 39.2174 6.28047 38.25 7.57812 38.25H66.5625V146.781H17.0156C15.718 146.781 14.6562 145.63 14.6562 144.328ZM146.781 59.39C146.781 60.6877 145.72 61.8438 144.422 61.8438H97.2391C95.9367 61.8438 94.8797 62.9008 94.8797 64.2032C94.8797 65.5055 95.9367 66.5625 97.2391 66.5625H137.344V144.328C137.344 145.625 136.287 146.781 134.989 146.781H85.4375V38.25H144.422C145.72 38.25 146.781 39.2174 146.781 40.515V59.39Z" fill="#474036"/>
</g>
<defs>
<clipPath id="clip0_205_287">
<rect width="151" height="151" fill="white" transform="translate(0.5 0.5)"/>
</clipPath>
</defs>
</svg>
