<svg width="30" height="30" viewBox="0 0 30 30" fill="none" xmlns="http://www.w3.org/2000/svg">
<path d="M10 3.74988V21.8749M18.75 8.12488V25.6249M6.56625 5.24488L5.0325 6.13488C3.79625 6.85113 3.17875 7.20988 2.84 7.80613C2.5 8.40238 2.5 9.12738 2.5 10.5799V20.7849C2.5 22.6924 2.5 23.6474 2.9275 24.1774C3.2125 24.5299 3.61125 24.7674 4.0525 24.8461C4.715 24.9649 5.5275 24.4936 7.15 23.5524C8.2525 22.9136 9.3125 22.2486 10.6313 22.4299C11.2313 22.5111 11.8025 22.7961 12.9475 23.3649L17.7138 25.7349C18.745 26.2474 18.755 26.2499 19.9013 26.2499H22.5C24.8575 26.2499 26.035 26.2499 26.7675 25.5011C27.5 24.7536 27.5 23.5486 27.5 21.1386V12.7136C27.5 10.3049 27.5 9.10113 26.7675 8.35113C26.035 7.60363 24.8575 7.60363 22.5 7.60363H19.9013C18.755 7.60363 18.745 7.60113 17.7138 7.08863L13.55 5.01863C11.8113 4.15363 10.9413 3.72113 10.015 3.74988C9.08875 3.77863 8.25 4.26863 6.56625 5.24488Z" stroke="#C19D56" stroke-width="1.5" stroke-linecap="round" stroke-linejoin="round"/>
</svg>
