<svg width="36" height="35" viewBox="0 0 36 35" fill="none" xmlns="http://www.w3.org/2000/svg">
<path d="M24.7083 8.4875C23.7117 7.34931 23.1623 5.88787 23.1625 4.375H18.6562V22.4583C18.6222 23.4372 18.2093 24.3645 17.5046 25.0447C16.7999 25.7249 15.8586 26.1048 14.8791 26.1042C12.8083 26.1042 11.0875 24.4125 11.0875 22.3125C11.0875 19.8042 13.5083 17.9229 16.0021 18.6958V14.0875C10.9708 13.4167 6.56665 17.325 6.56665 22.3125C6.56665 27.1688 10.5917 30.625 14.8646 30.625C19.4437 30.625 23.1625 26.9063 23.1625 22.3125V13.1396C24.9898 14.4519 27.1836 15.1559 29.4333 15.1521V10.6458C29.4333 10.6458 26.6917 10.7771 24.7083 8.4875Z" fill="white"/>
</svg>
