<svg width="36" height="35" viewBox="0 0 36 35" fill="none" xmlns="http://www.w3.org/2000/svg">
<path d="M18 23.3332C19.5471 23.3332 21.0308 22.7186 22.1248 21.6246C23.2188 20.5307 23.8334 19.0469 23.8334 17.4998C23.8334 15.9527 23.2188 14.469 22.1248 13.375C21.0308 12.2811 19.5471 11.6665 18 11.6665C16.4529 11.6665 14.9692 12.2811 13.8752 13.375C12.7813 14.469 12.1667 15.9527 12.1667 17.4998C12.1667 19.0469 12.7813 20.5307 13.8752 21.6246C14.9692 22.7186 16.4529 23.3332 18 23.3332Z" stroke="white" stroke-width="1.5" stroke-linecap="round" stroke-linejoin="round"/>
<path d="M4.875 23.3333V11.6667C4.875 9.7328 5.64323 7.87813 7.01068 6.51068C8.37813 5.14323 10.2328 4.375 12.1667 4.375H23.8333C25.7672 4.375 27.6219 5.14323 28.9893 6.51068C30.3568 7.87813 31.125 9.7328 31.125 11.6667V23.3333C31.125 25.2672 30.3568 27.1219 28.9893 28.4893C27.6219 29.8568 25.7672 30.625 23.8333 30.625H12.1667C10.2328 30.625 8.37813 29.8568 7.01068 28.4893C5.64323 27.1219 4.875 25.2672 4.875 23.3333Z" stroke="white" stroke-width="1.5"/>
<path d="M26.0208 9.49358L26.0354 9.47754" stroke="white" stroke-width="1.5" stroke-linecap="round" stroke-linejoin="round"/>
</svg>
