<svg width="36" height="35" viewBox="0 0 36 35" fill="none" xmlns="http://www.w3.org/2000/svg">
<path d="M20.9167 17.5002L15.8125 20.4168V14.5835L20.9167 17.5002Z" fill="white" stroke="white" stroke-width="1.5" stroke-linecap="round" stroke-linejoin="round"/>
<path d="M3.41669 18.5327V16.4677C3.41669 12.2458 3.41669 10.1341 4.73648 8.77641C6.05773 7.41725 8.13731 7.35891 12.295 7.24079C14.2638 7.18537 16.2763 7.146 18 7.146C19.7238 7.146 21.7348 7.18537 23.705 7.24079C27.8627 7.35891 29.9423 7.41725 31.2621 8.77641C32.5819 10.1356 32.5834 12.2472 32.5834 16.4677V18.5312C32.5834 22.7545 32.5834 24.8647 31.2636 26.2239C29.9423 27.5816 27.8642 27.6414 23.705 27.7581C21.7363 27.815 19.7238 27.8543 18 27.8543C16.2763 27.8543 14.2652 27.815 12.295 27.7581C8.13731 27.6414 6.05773 27.5831 4.73648 26.2239C3.41523 24.8647 3.41669 22.7531 3.41669 18.5327Z" stroke="white" stroke-width="1.5"/>
</svg>
