<svg width="30" height="25" viewBox="0 0 30 25" fill="none" xmlns="http://www.w3.org/2000/svg">
<path d="M27 0H3C2.20435 0 1.44129 0.32924 0.87868 0.915291C0.31607 1.50134 0 2.2962 0 3.125V21.875C0 22.7038 0.31607 23.4987 0.87868 24.0847C1.44129 24.6708 2.20435 25 3 25H27C27.7956 25 28.5587 24.6708 29.1213 24.0847C29.6839 23.4987 30 22.7038 30 21.875V3.125C30 2.2962 29.6839 1.50134 29.1213 0.915291C28.5587 0.32924 27.7956 0 27 0ZM27 6.61875L15 14.2469L3 6.61875V3.125H27V6.61875Z" fill="#C19D56"/>
</svg>
